# xmcd CD database file
#
# Track frame offsets:
#	150
#	19302
#	37695
#	58777
#	72710
#	90750
#	108682
#	126397
#	144197
#	161597
#	175205
#	184825
#	200027
#	216435
#	238940
#	252030
#	269532
#	288220
#	302762
#
# Disc length: 4305 seconds
#
# Revision: 0
# Processed by: cddbd v1.5.2PL0 Copyright (c) Steve Scherf et al.
# Submitted via: CDex 1.51
#
DISCID=1f10cf13
DTITLE=Kid Thomas - New Orleans Traditional Jazz Legends - Vol 4
DYEAR=1993
DGENRE=Jazz
TTITLE0=Shake It And Break It
TTITLE1=Milneburg Joys
TTITLE2=Blues In Algiers
TTITLE3=Dinah Lee
TTITLE4=When The Saints Go Marching In
TTITLE5=Just A Little While To Stay Here
TTITLE6=Precious Lord
TTITLE7=In The Sweet Bye And Bye
TTITLE8=Hindustan
TTITLE9=Moonlight Bay
TTITLE10=Caldonia
TTITLE11=Kid Thomas Blues
TTITLE12=Second Line
TTITLE13=Just A Closer Walk With Thee
TTITLE14=Altons Boogie
TTITLE15=See See Rider
TTITLE16=Just A Little While To Stay Here
TTITLE17=Out In The Cold Again
TTITLE18=Panama
EXTD=YEAR: 1993
EXTT0=
EXTT1=
EXTT2=
EXTT3=
EXTT4=
EXTT5=
EXTT6=
EXTT7=
EXTT8=
EXTT9=
EXTT10=
EXTT11=
EXTT12=
EXTT13=
EXTT14=
EXTT15=
EXTT16=
EXTT17=
EXTT18=
PLAYORDER=
